<svg width="44" height="44" viewBox="0 0 44 44" fill="none" xmlns="http://www.w3.org/2000/svg">
<g id="Logo">
<path id="Vector" d="M25.0542 2.61989L37.4292 9.91656L37.6052 10.0321L37.7757 10.1751L37.97 10.3107C38.6576 10.8258 39.2244 11.4847 39.631 12.2415C40.0376 12.9983 40.2741 13.8347 40.324 14.6924L40.3332 15.0664V28.4204C40.3332 30.5746 39.1543 32.5564 37.3577 33.5409L24.8837 41.4279C23.087 42.4142 20.9127 42.4142 19.017 41.3692L6.74284 33.6014C5.81334 33.0921 5.03755 32.3427 4.49643 31.4314C3.95532 30.5201 3.6687 29.4803 3.6665 28.4204V15.0646C3.6665 13.0369 4.7115 11.1632 6.3725 10.1054L19.1142 2.59239C20.9475 1.58039 23.1732 1.58039 25.0542 2.61989ZM25.6665 12.8334H21.9998C20.5411 12.8334 19.1422 13.4129 18.1107 14.4443C17.0793 15.4758 16.4998 16.8747 16.4998 18.3334V25.6667C16.4998 27.1254 17.0793 28.5244 18.1107 29.5558C19.1422 30.5873 20.5411 31.1667 21.9998 31.1667H25.6665C26.1527 31.1667 26.619 30.9736 26.9629 30.6298C27.3067 30.2859 27.4998 29.8196 27.4998 29.3334V22.0001C27.4998 21.5138 27.3067 21.0475 26.9629 20.7037C26.619 20.3599 26.1527 20.1667 25.6665 20.1667H23.8332C23.3469 20.1667 22.8806 20.3599 22.5368 20.7037C22.193 21.0475 21.9998 21.5138 21.9998 22.0001L22.0127 22.2146C22.0652 22.6605 22.2796 23.0717 22.6152 23.3701C22.9507 23.6685 23.3841 23.8333 23.8332 23.8334V27.5001H21.9998C21.5136 27.5001 21.0473 27.3069 20.7035 26.9631C20.3597 26.6193 20.1665 26.153 20.1665 25.6667V18.3334C20.1665 17.8472 20.3597 17.3808 20.7035 17.037C21.0473 16.6932 21.5136 16.5001 21.9998 16.5001H25.6665C26.1527 16.5001 26.619 16.3069 26.9629 15.9631C27.3067 15.6193 27.4998 15.153 27.4998 14.6667C27.4998 14.1805 27.3067 13.7142 26.9629 13.3704C26.619 13.0265 26.1527 12.8334 25.6665 12.8334Z" fill="url(#paint0_linear_2712_628)"/>
</g>
<defs>
<linearGradient id="paint0_linear_2712_628" x1="5.49914" y1="42.1605" x2="70.7141" y2="-2.61897" gradientUnits="userSpaceOnUse">
<stop stop-color="#4C6DD0"/>
<stop offset="1" stop-color="#04BEFE"/>
</linearGradient>
</defs>
</svg>
