<svg width="154" height="43" viewBox="0 0 154 43" fill="none" xmlns="http://www.w3.org/2000/svg">
<style>
#social{transition:all 0.5s;  stroke:#22343D}
svg:hover #social{ stroke:#ff0000;}
</style>
<path id="social" d="M26.5 16.2319H26.51M153 21.7158C153 32.7615 144.046 41.7158 133 41.7158C121.954 41.7158 113 32.7615 113 21.7158C113 10.6701 121.954 1.71582 133 1.71582C144.046 1.71582 153 10.6701 153 21.7158ZM144 12.7259C143.042 13.4014 141.982 13.918 140.86 14.2559C140.258 13.5634 139.457 13.0726 138.567 12.8498C137.677 12.627 136.739 12.6831 135.882 13.0103C135.025 13.3376 134.288 13.9203 133.773 14.6796C133.258 15.4389 132.988 16.3382 133 17.2559V18.2559C131.243 18.3014 129.501 17.9117 127.931 17.1213C126.361 16.331 125.01 15.1645 124 13.7259C124 13.7259 120 22.7259 129 26.7259C126.941 28.1238 124.487 28.8248 122 28.7259C131 33.7259 142 28.7259 142 17.2259C141.999 16.9473 141.972 16.6695 141.92 16.3959C142.941 15.3894 143.661 14.1186 144 12.7259ZM41 21.7319C41 32.7776 32.0457 41.7319 21 41.7319C9.9543 41.7319 1 32.7776 1 21.7319C1 10.6862 9.9543 1.73193 21 1.73193C32.0457 1.73193 41 10.6862 41 21.7319ZM16 11.7319H26C28.7614 11.7319 31 13.9705 31 16.7319V26.7319C31 29.4934 28.7614 31.7319 26 31.7319H16C13.2386 31.7319 11 29.4934 11 26.7319V16.7319C11 13.9705 13.2386 11.7319 16 11.7319ZM25 21.1019C25.1234 21.9342 24.9813 22.7841 24.5938 23.5309C24.2063 24.2777 23.5931 24.8833 22.8416 25.2616C22.0901 25.6399 21.2384 25.7715 20.4078 25.6379C19.5771 25.5042 18.8098 25.112 18.2148 24.5171C17.6199 23.9222 17.2277 23.1548 17.0941 22.3241C16.9604 21.4935 17.0921 20.6418 17.4703 19.8903C17.8486 19.1388 18.4542 18.5257 19.201 18.1382C19.9478 17.7507 20.7978 17.6085 21.63 17.7319C22.4789 17.8578 23.2648 18.2534 23.8717 18.8602C24.4785 19.4671 24.8741 20.253 25 21.1019ZM97 21.7158C97 32.7615 88.0457 41.7158 77 41.7158C65.9543 41.7158 57 32.7615 57 21.7158C57 10.6701 65.9543 1.71582 77 1.71582C88.0457 1.71582 97 10.6701 97 21.7158ZM83 11.7158H80C78.6739 11.7158 77.4021 12.2426 76.4645 13.1803C75.5268 14.118 75 15.3897 75 16.7158V19.7158H72V23.7158H75V31.7158H79V23.7158H82L83 19.7158H79V16.7158C79 16.4506 79.1054 16.1963 79.2929 16.0087C79.4804 15.8212 79.7348 15.7158 80 15.7158H83V11.7158Z" stroke-width="2" stroke-linecap="round" stroke-linejoin="round"/>
</svg>
